<svg width="1191" height="816" viewBox="0 0 1191 816" fill="none" xmlns="http://www.w3.org/2000/svg">
<path d="M896.028 16.8752C1063.57 -24.6067 1181.59 -4.12486 1190.56 245.875C1199.53 495.875 1036.02 511.927 901.559 625.871C729.964 771.285 409.528 469.37 413.028 312.37C416.528 155.37 693.509 67.0172 896.028 16.8752Z" fill="url(#paint0_radial_173_520)" fill-opacity="0.2"/>
<path d="M458 229.5C317 209.5 327.454 38.7862 89.5 109.5C-11.5094 139.517 -18.6479 499.583 49.3521 621.983C134.352 774.983 390.509 725.483 473.009 638.983C555.509 552.483 793.509 591.483 751.009 435.983C708.509 280.483 615.437 251.832 458 229.5Z" fill="#070045" fill-opacity="0.2"/>
<defs>
<radialGradient id="paint0_radial_173_520" cx="0" cy="0" r="1" gradientUnits="userSpaceOnUse" gradientTransform="translate(801.956 332.198) rotate(90) scale(332.198 388.956)">
<stop stop-color="#7D004B"/>
<stop offset="1" stop-color="#7D004B"/>
</radialGradient>
</defs>
</svg>
